<?xml version="1.0" encoding="utf-8"?>
<!-- Generator: Adobe Illustrator 24.0.1, SVG Export Plug-In . SVG Version: 6.00 Build 0)  -->
<svg version="1.1" id="Layer_1" xmlns="http://www.w3.org/2000/svg" xmlns:xlink="http://www.w3.org/1999/xlink" x="0px" y="0px"
	 viewBox="0 0 1313.9 369.4" style="enable-background:new 0 0 1313.9 369.4;" xml:space="preserve">
<style type="text/css">
	.st0{fill:#FFFFFF;}
	.st1{fill:#0076BC;}
	.st2{fill:#231F20;}
</style>
<g>
	<g>
		<g>
			<g>
				<path class="st0" d="M410.1,204.8c4.1-16.2,5.7-50.4,2.9-66.9c-4.5-26.7-30.3-76.1-47-97.2c-6.4-8.1-22.3-22.4-31.9-25.8
					c-9.6-3.4-30.8-2.1-40.6,0.6c-7.8,2.2-21,13-28.4,16.4c-9.7,4.4-31.3,8-42,7.9c-15.1-0.2-44.5-9.7-59.5-10.3
					c-3.5-0.1-13.8,1.3-13.8,1.3s-26.6,0.5-56.3,7.1c-2.7,1.5-9.1,5.1-12.6,6.7c-6.1,2.8-20.2,2.3-26.4,4.9c-2,0.8-5.4,3.7-7.2,4.9
					c-7.8,4.9-32,18.3-32,18.3s3.8,0.6,4.8,1.3c1.3,1,3.1,4.1,3.2,5.7c0.2,2.2-1.7,6.5-3.2,8.2c-0.3,0.3-1.6,0.8-1.6,0.8
					s8,6.8,11.2,8.1c2.4,1,7.8,1.4,10.4,1.7c2.4,0.2,7.2,0,9.6,0c1.6,0,6-1.6,6.4,0c0.5,2.2-6,3-8,4c-1.6,0.8-5.8,1.6-6.4,3.3
					c-0.4,1.1,1,3.5,1.8,4.2c2.1,1.8,10.8,2.5,10.8,2.5l10.6-4.2l27.9-6.4l0,0v-0.1c0,0,16-13.2,19.2-8.9c1.7,2.4-8.8,6.2-7.6,8.9
					c0.8,1.7,5.7-0.3,7.6,0c5.1,0.9,19.7,7.1,19.7,7.1l2.9,1.2c4.8,3.9,13.2,8.1,26.6,6.3c0,0,16.4-2.1,19.3-6.3
					c2.4-3.6-2.3-13.3-0.8-17.4c0.5-1.3,3.4-2.6,3.9-4c1.3-3.7-5.3-14.7-1.5-15.8c5.3-1.5,7.5,16.6,7.5,21.3s-4.1,1.5-5.2,2.4
					c-2.9,2.4,3.6,11.2,3.1,15c-0.1,0.9-1,2.5-1.5,3.1c-2,2.6-9,5.5-10,8.7c-1,2.9,1.2,9.4,3.1,11.8c1.8,2.3,7.2,5.2,10.1,5.6
					c8.4,1,24.8-6.5,31.7-11.5c5.6-4.1,12.7-10.2,10.4-26.1c-0.6-4.2-8.3-11.2-7-15.2c0.6-1.8,5.9-1.6,6.6-3.4
					c1.9-4.5-9.4-16.1-5.4-19c4.9-3.5,14.5,15.7,11.6,21.3c-0.7,1.2-3.7,2.6-4.1,4c-0.9,3.4,3.9,9.9,4.1,13.4
					c0.3,7.1-2.2,21.9-6.2,27.7c-4.4,6.3-19.8,12.9-23.2,19.7c-3.8,7.7,14.2,21.6,8.5,33.2c-2.3,4.6-14.9-7.9-19.3-5.5
					c-4.5,2.5-5.3,14.6-6.2,19.7c-2,11-1.6,33.6-0.2,44.6c0.8,6.3,6,23.6,6.9,26.6v0.1v0.1v0.1v0.1c1.5,4.8,18.2,11,15.5,14.9
					c-1.7,2.5-13.3-5.9-11,4.7c0.2,0.9,0.8,2.7,1.2,3.6c1.7,4.8,5.6,14.7,9.3,18.2c2.2,2,7.9,4.3,10.8,4.7c2.5,0.4,6.3,0,10-0.8
					c0.6-2,3.9-5,5.7-4.7c0.8,0.1,1.7,1,2.4,2.3c0.6-0.3,1.2-0.5,1.6-0.8c0.3-0.1,0.6-0.3,0.9-0.6c-0.8-1.5-1.4-3-1.5-3.9
					c-0.1-1.9,2.8-6.1,4.7-6c1,0,2.1,1.5,2.9,3.1c0.9-1.2,1.8-2.4,2.6-3.6c-0.8-1.3-1.4-2.6-1.4-3.5c0-2.1,3-7.4,5.1-6.5
					c0.3,0.1,0.6,0.4,0.9,0.8c0-0.1,0.1-0.3,0.1-0.4c0.4-10.6-23.6-25-17.7-33.8c1-1.4,5.7,1.1,6.8-0.2c6.7-7.7-7-31.3-3.9-41.1
					c0.6-2,5.4-4.2,5.4-6.3c-0.1-7.1-18.2-20.5-19.3-21.3c1.2,0.8,23.4,13.8,48.1,11.5c16.5-1.5,34.1-9.9,47.5-33.3
					c0.1-0.1,0.1-0.2,0.2-0.4c0,0-0.1,0.1-0.2,0.4c-1.7,3.4-15.7,31.4-16.1,46.2c-0.2,9.1,0.1,27.4-1.5,36.3
					c-1.4,7.8-6.1,23.2-10.1,30c-1.9,3.3-8.5,7.7-10.1,11.1c-1.1,2.3-0.5,7.9-1.5,10.3c-3.8,8.4-17.9,21.2-25.5,26.1
					c-2.1,1.3-7.3,1.7-9.3,3.1c-0.3,0.2-0.5,0.4-0.8,0.6c-2.2,1.8-5.7,5.1-5.4,7.3c0.2,1.4,1.3,2.8,2.8,4c0.3-0.5,0.6-0.8,0.9-1
					c1.9-1.2,7.8,0.1,8.7,2.2c0.4,1,0.1,2.4-0.6,4.1c0.8,0.4,1.5,0.7,2.1,0.9c0.3,0.1,0.6,0.2,1,0.3c0.8-1.7,1.8-3.2,2.6-3.9
					c1.8-1.3,7.6-1.2,8.7,0.7c0.6,1-0.1,3.1-1.1,5.1c1.7,0.2,3.4,0.3,5.1,0.4c0.8-1.7,1.7-3.4,2.5-4c2-1.4,8.9-1.9,9.5,0.7
					c0.2,0.8-0.2,1.9-0.9,3.1c2.8-0.2,5.3-0.5,7.3-1c4.9-1.1,14.1-6,17.8-9.4c4.5-4.3,10.9-15.5,13.2-21.3c0.3-0.9,0.5-3,0.8-4
					c0.6-2,2-6.1,3.1-7.9c1.4-2.2,4-5,6.7-8c3.4-3.8,6.9-7.8,8-11c0.8-2.4-0.5-7.7,0-10.3c2.1-10.5,14.3-29,16.3-39.5
					c0.7-3.7-0.3-11.7,1.5-15c1.6-2.9,9.2-4.9,10.6-7.9c3.1-6.8-8.6-12.1-0.6-30c1.5-3.3,9.9-6,10.8-9.5c1.7-6.1-6.2-19.8-2.9-25.1
					c1.3-2.2,8.1-1,9.5-3.2c4.3-7.1-12.1-30.1-4.5-33.2c11-4.3,22.7,24.3,19.5,44c-1.1,6.6-9.8,17.5-12.4,23.7
					c-3.1,7.4-3.8,24.2-7,31.6c-3.2,7.5-14,19.7-17.8,26.9c-5,9.4-11.5,29.9-13.9,40.3c-0.7,3.1-0.3,9.7-1.5,12.6
					c-1.1,2.6-2.1,4.9-3.1,7.2c8.8,1.7,24.2,3.9,29.6,0.5c6.5-4,9.6-21.3,10.7-29c0.8-5.3-1.2-16.1,0-21.3
					C390.1,239.4,406.9,217.6,410.1,204.8z M76.9,58.2c-11.3,10.1-12-3-12-3s10.7-2.8,14,1.8C79.6,58,76.9,58.2,76.9,58.2z
					 M138.5,70.6c-2.3,1.5-8.1,1.9-10.8,1.6c-2.6-0.3-9.2-3.4-8.5-5.9c0.6-2.2,6-0.3,8.9-0.3c0-0.1,0-0.1,0-0.1V66
					c0.4,0,0.8,0,1.1-0.1c1.1-0.3,5.9-1.4,6.6-2.3c2.1-2.6,1.8-13.7,1.2-16.6c-0.3-1.7-2.3-4.5-18.8-0.5l-0.5-0.1
					c-1.1-2,6.9-5.8,6.9-5.8s2.9-1.7,8.9-1.7c2.6,0,6.5,2.7,7.5,6C142.5,49.9,145.5,66,138.5,70.6z M295.1,105.3
					c-0.3,2.9-7,5.9-7.7,8.7c-1.6,6.2,6.2,18.9,5.4,25.3c-0.9,8.3-7.6,24.8-13.9,30c-5.6,4.5-27.8,6.3-27.8,6.3s16.3-6.7,20.1-11
					c4.3-4.9,9.4-17.9,10-24.5c0.7-8.1-9.7-24.3-6.6-31.8c0.8-2,6.4-2.5,7.3-4.5c3.6-8-10-31.5-8.5-34
					C278.7,60.8,296,94.9,295.1,105.3z"/>
				<g>
					<path class="st1" d="M324.3,168.1c0.1-0.2,0.2-0.4,0.2-0.4C324.4,167.9,324.3,168,324.3,168.1z"/>
					<path class="st1" d="M273.4,69.8c-1.4,2.5,12.1,26,8.5,34c-0.9,2-6.5,2.6-7.3,4.5c-3.2,7.5,7.3,23.7,6.6,31.8
						c-0.6,6.6-5.7,19.6-10,24.5c-3.8,4.3-20.1,11-20.1,11s22.2-1.8,27.8-6.3c6.4-5.2,13-21.7,13.9-30c0.7-6.4-7-19-5.4-25.3
						c0.7-2.8,7.5-5.8,7.7-8.7C296,94.9,278.7,60.8,273.4,69.8z"/>
					<path class="st1" d="M133.4,38.8c-6,0-8.9,1.7-8.9,1.7s-8,3.7-6.9,5.8l0.5,0.1c16.5-4.1,18.5-1.2,18.8,0.5
						c0.6,3,0.9,14-1.2,16.6c-0.7,0.9-5.5,2-6.6,2.3c-0.3,0.1-0.7,0.1-1.1,0.1v-0.1v0.1c-2.9,0-8.3-1.9-8.9,0.3
						c-0.7,2.5,6,5.7,8.5,5.9c2.7,0.3,8.5-0.1,10.8-1.6c7.1-4.5,4-20.7,2.5-25.7C139.9,41.5,136.1,38.8,133.4,38.8z"/>
					<path class="st1" d="M426.6,136.5c-4.5-27.8-29.2-80-45.7-102.7C373.1,23,350.8,6.7,338.4,2.2c-11-4-35.6-1.9-46.8,1.6
						c-7.3,2.3-19.5,12.7-26.7,15.4c-9.3,3.5-28.8,7.8-38.7,7.9c-16.1,0.2-48-5.9-64.1-5.7c-17.7,0.3-50.1,2.5-70.6,8.9
						c-0.2,0.1-0.3,0.2-0.4,0.3c-3.8,1.5-8.9,6.3-11.7,7.4c-6,2.2-19.3,3.1-25,6c-2.1,1.1-5,3.9-7,5.4c-3.5,2.5-11.4,6.1-15.2,8.1
						C24.8,61.4,2.5,73,2.5,73l-2.4,4.1c0,0-2.4,6.5,12,16.3c0,0,5.5,5.2,12,7.4c2.2,0.7,7.3,0.7,8.8,2.4c0.7,0.8,0.4,3.1,0.8,4.1
						c0.7,1.6,2.7,4.6,4,5.7c1.5,1.2,5.2,2.5,7,2.9c2.6,0.6,7.9,0.5,10.6,0.3c8.7-0.7,30-5.1,40.8-7.4c2.4-0.1,10.8-0.2,13.9,0.4
						c4.8,1,13.6,6,18.4,7.3c0.6,0.2,1.9,0.2,2.5,0.4c14.4,4.5,20.5,10.1,27.3,13.4c2.1,1,6.6,2.6,8.5,3.9c1.1,0.8,2.8,3,3.8,4
						c2.4,2.1,7.6,5.8,10.1,7.9c16,13.6,4.6,37.5,2.3,49.8c-2.3,12.2-0.6,37.4,0.8,49.7c1.5,12.9,8.2,37.9,10.8,50.6
						c1.2,5.8,10.3,20.8,15.4,23.6c6.2,3.5,8.2,3.4,13.3,4c3.5,0.4,8.5,0,13.3-1l4.9,5.7l1.8-0.5c-3.3,4.3-6.8,10.6-6.2,14.3
						c0.4,2.7,3.2,6,6.5,8.8l-1.7,7l7.3,6.7c-2.2-2.2,0.7-7.4,0.7-7.4s0.3-0.4,0.8-1.1c0.6,0.4,1.3,0.7,1.8,1c1.2,0.6,2.6,1,4.2,1.4
						l7,9.1c-0.4-1.6,0.5-5,1.4-7.7c3,0.3,6.2,0.4,9.1,0.5l4,8.8l1.7-8.7c1.6,0,3-0.1,4.3-0.1c6.1-0.2,18.6-1.1,23.9-4
						c3.4-1.8,8.6-7.9,10.9-11.1c17.1-24.1,22.8-33.2,27.2-42.6c8.6,3.4,24.2,9,30.4,6.5c6-2.4,10.6-16.5,13.5-22.3
						c1.9-3.7,4.7-11.7,5.4-15.8c0.7-3.9,0.3-12,1.6-15.8c4.1-12.9,23.3-33.6,27.1-46.6C429.2,191.8,429.4,154.4,426.6,136.5z
						 M244.8,322.7c0,0-0.2-0.8-0.6-1.9c1.3-0.6,2.5-1.2,3.5-1.8c0.2-0.1,0.4-0.3,0.6-0.5l10.4-0.7c-1.5-0.6-3.9-3.6-5.4-5.7
						c1.1-1.8,2.1-3.7,3.1-5.8l10.3,1.7l-6.7-7c0,0-0.2-0.8-0.5-2c1.2-3.1,2-5.8,2.2-7.6c0.7-7.8-14.4-17.5-11.6-23.4
						c0.4-0.9,3.2,0.8,3.8,0c3.4-4.2-6.3-39.4-3.1-43.5c0.7-1,3.6-12.6,7-14.2c7-3.2,12.9-4.9,19.1-5.3c4.8-0.3,9.8,0.2,15.7,1.3
						c8.1,1.5,6.5,24.7,6.2,33.2c-0.3,8.8-4.7,26.2-8.5,34c-1.8,3.6-7.8,9.3-10.1,12.7c-3.4,5.2-8.2,14.4-13.2,22.1
						c-3,4.7-6.1,8.9-9,11.3c-2.5,2.1-9.5,3-11.9,5.3c0,0,0,0-0.1,0C245.4,323.8,244.8,322.7,244.8,322.7z M410.1,204.8
						c-3.2,12.8-20,34.5-23,47.4c-1.2,5.2,0.8,16.1,0,21.3c-1.1,7.7-4.2,25-10.7,29c-5.3,3.4-20.7,1.1-29.6-0.5
						c1-2.3,2.1-4.6,3.1-7.2c1.2-2.9,0.8-9.5,1.5-12.6c2.4-10.4,8.9-30.9,13.9-40.3c3.8-7.1,14.6-19.4,17.8-26.9
						c3.1-7.4,3.8-24.2,7-31.6c2.6-6.2,11.3-17.1,12.4-23.7c3.2-19.7-8.5-48.4-19.5-44c-7.7,3,8.8,26.1,4.5,33.2
						c-1.3,2.2-8.1,1-9.5,3.2c-3.3,5.3,4.6,19,2.9,25.1c-1,3.5-9.3,6.1-10.8,9.5c-8.1,17.9,3.7,23.2,0.6,30c-1.4,3-9,5-10.6,7.9
						c-1.9,3.3-0.9,11.3-1.5,15c-2,10.5-14.2,29-16.3,39.5c-0.5,2.5,0.8,7.8,0,10.3c-1.1,3.2-4.6,7.2-8,11c-2.7,2.9-5.3,5.8-6.7,8
						c-1.1,1.8-2.5,5.9-3.1,7.9c-0.3,1-0.4,3-0.8,4c-2.3,5.9-8.6,17.1-13.2,21.3c-3.7,3.5-12.9,8.4-17.8,9.4c-2,0.4-4.5,0.8-7.3,1
						c0.6-1.2,1-2.3,0.9-3.1c-0.6-2.6-7.5-2.1-9.5-0.7c-0.8,0.6-1.7,2.3-2.5,4c-1.7-0.1-3.4-0.2-5.1-0.4c1-2,1.7-4.1,1.1-5.1
						c-1.2-1.9-7-2.1-8.7-0.7c-0.9,0.6-1.8,2.1-2.6,3.9c-0.3-0.1-0.7-0.2-1-0.3c-0.6-0.2-1.3-0.6-2.1-0.9c0.7-1.6,1.1-3.1,0.6-4.1
						c-0.9-2.1-6.8-3.4-8.7-2.2c-0.3,0.2-0.6,0.6-0.9,1c-1.5-1.3-2.6-2.7-2.8-4c-0.3-2.2,3.1-5.5,5.4-7.3c0.3-0.2,0.6-0.5,0.8-0.6
						c2-1.4,7.2-1.8,9.3-3.1c7.6-4.8,21.7-17.7,25.5-26.1c1.1-2.4,0.4-7.9,1.5-10.3c1.6-3.4,8.2-7.8,10.1-11.1
						c4-6.8,8.6-22.2,10.1-30c1.7-8.9,1.3-27.2,1.5-36.3c0.4-14.8,14.3-42.8,16.1-46.2c-13.4,23.4-31,31.7-47.5,33.3
						c-24.7,2.3-46.9-10.8-48.1-11.5c1.1,0.9,19.2,14.3,19.3,21.3c0,2.1-4.8,4.3-5.4,6.3c-3.1,9.8,10.5,33.3,3.9,41.1
						c-1.1,1.3-5.8-1.2-6.8,0.2c-5.9,8.8,18.1,23.2,17.7,33.8c0,0.1,0,0.3-0.1,0.4c-0.3-0.4-0.6-0.7-0.9-0.8
						c-2.1-0.9-5.1,4.4-5.1,6.5c0,0.8,0.6,2.2,1.4,3.5c-0.8,1.2-1.7,2.5-2.6,3.6c-0.9-1.6-2-3.1-2.9-3.1c-1.9-0.1-4.8,4-4.7,6
						c0,0.9,0.6,2.4,1.5,3.9c-0.3,0.3-0.6,0.5-0.9,0.6c-0.5,0.3-1,0.5-1.6,0.8c-0.7-1.3-1.6-2.2-2.4-2.3c-1.8-0.3-5.1,2.7-5.7,4.7
						c-3.7,0.8-7.5,1.2-10,0.8c-2.9-0.5-8.7-2.7-10.8-4.7c-3.7-3.5-7.6-13.4-9.3-18.2c-0.3-0.9-1-2.6-1.2-3.6
						c-2.3-10.7,9.3-2.2,11-4.7c2.7-3.9-14-10.1-15.5-14.9v-0.1v-0.1c0,0,0,0,0-0.1V271c-0.9-2.9-6.1-20.2-6.9-26.6
						c-1.4-11-1.7-33.6,0.2-44.6c0.9-5.1,1.7-17.3,6.2-19.7c4.4-2.4,17.1,10.1,19.3,5.5c5.7-11.6-12.3-25.5-8.5-33.2
						c3.4-6.9,18.9-13.4,23.2-19.7c4-5.8,6.4-20.6,6.2-27.7c-0.1-3.5-4.9-10-4.1-13.4c0.4-1.4,3.4-2.7,4.1-4
						c2.9-5.6-6.7-24.9-11.6-21.3c-3.9,2.9,7.3,14.5,5.4,19c-0.7,1.7-6,1.6-6.6,3.4c-1.3,4,6.4,11.1,7,15.2
						c2.2,15.8-4.8,22-10.4,26.1c-6.9,5-23.4,12.5-31.7,11.5c-2.8-0.4-8.3-3.3-10.1-5.6c-1.9-2.4-4.1-8.9-3.1-11.8
						c1.1-3.2,8-6,10-8.7c0.5-0.7,1.4-2.3,1.5-3.1c0.5-3.8-6-12.6-3.1-15c1.1-0.9,5.2,2.4,5.2-2.4c0-4.7-2.2-22.8-7.5-21.3
						c-3.7,1,2.8,12.1,1.5,15.8c-0.4,1.3-3.4,2.6-3.9,4c-1.5,4.1,3.2,13.8,0.8,17.4c-2.9,4.3-19.3,6.3-19.3,6.3
						c-13.4,1.8-21.9-2.4-26.6-6.3l-2.9-1.2c0,0-14.6-6.2-19.7-7.1c-1.9-0.3-6.8,1.7-7.6,0c-1.2-2.7,9.3-6.5,7.6-8.9
						c-3.2-4.3-19.2,8.9-19.2,8.9v0.1l0,0L65.2,109l-10.6,4.2c0,0-8.6-0.7-10.8-2.5c-0.9-0.7-2.2-3.1-1.8-4.2
						c0.6-1.7,4.8-2.5,6.4-3.3c2-1,8.5-1.8,8-4c-0.4-1.6-4.8,0-6.4,0c-2.4,0-7.2,0.2-9.6,0c-2.6-0.2-8-0.6-10.4-1.7
						c-3.2-1.3-11.2-8.1-11.2-8.1s1.3-0.5,1.6-0.8c1.5-1.6,3.4-6,3.2-8.2c-0.1-1.6-1.9-4.7-3.2-5.7c-1-0.8-4.8-1.3-4.8-1.3
						s24.2-13.4,32-18.3c1.8-1.1,5.2-4.1,7.2-4.9c6.2-2.6,20.3-2.1,26.4-4.9c3.5-1.7,9.9-5.2,12.6-6.7c29.7-6.6,56.3-7.1,56.3-7.1
						s10.3-1.4,13.8-1.3c15.1,0.6,44.4,10.1,59.5,10.3c10.7,0.2,32.2-3.4,42-7.9c7.4-3.4,20.6-14.2,28.4-16.4c9.8-2.7,31-4,40.6-0.6
						s25.5,17.8,31.9,25.8c16.7,21.1,42.5,70.5,47,97.2C415.8,154.4,414.2,188.6,410.1,204.8z"/>
					<path class="st1" d="M64.9,55.2c0,0,0.7,13,12,3c0,0,2.8-0.2,2-1.2C75.6,52.4,64.9,55.2,64.9,55.2z"/>
				</g>
			</g>
		</g>
		<g>
			<path class="st2" d="M577.4,64.8h19.1l28.7,92.9h-16.8l-7-23.8h-29l-6.9,23.8h-16.9L577.4,64.8z M597.6,120.3l-6.9-23.1
				c-1.2-4.1-2.6-9.9-3.7-15.4c-1.2,5.5-2.6,11.3-3.9,15.4l-6.9,23.1H597.6z"/>
			<path class="st2" d="M646.1,157.7v-87c10.7-4,22.8-7.7,34-7.7c18.4,0,34.1,12.2,34.1,34.6v26.3c0,22.4-12.8,33.8-34.1,33.8H646.1
				z M697.5,99c0-14.7-7.1-21.7-17.5-21.7c-5.9,0-12.2,1.4-17.5,3.2v63H680c12,0,17.5-5.5,17.5-20.6V99z"/>
			<path class="st2" d="M731.1,64.8H748l17.6,60.5c1.2,4.3,2.6,10.5,3.9,16.1c1.1-5.6,2.5-11.7,3.7-16.1l17.7-60.5h16.8l-28.8,92.9
				h-19.1L731.1,64.8z"/>
			<path class="st2" d="M828.6,64.8h53.2v14.3h-36.7V104h31.1l-0.8,13.7h-30.2v25.7h37.9v14.3h-54.4V64.8H828.6z"/>
			<path class="st2" d="M908.2,64.8h13.3l36.2,60.4c-0.3-5.1-0.4-9.9-0.4-13.8V64.8h16.6v92.9h-13.7l-36-59.8
				c0.4,5.2,0.6,10.2,0.6,14.2v45.6h-16.5L908.2,64.8L908.2,64.8z"/>
			<path class="st2" d="M1019,79.1h-23.8V64.8h64.1v14.3h-23.6v78.6H1019L1019,79.1L1019,79.1z"/>
			<path class="st2" d="M1079.8,64.8h16.5V126c0,11.7,7,19.3,17.3,19.3c10.2,0,17.3-7.6,17.3-19.3V64.8h16.5v62.4
				c0,19.3-15.3,32.3-33.8,32.3c-18.6,0-33.8-13.1-33.8-32.3V64.8z"/>
			<path class="st2" d="M1174.8,64.8h32c17.9,0,29.3,13.5,29.3,29c0,11.5-6.6,21.6-17.5,25.7l18,38.2h-18.6l-16-36h-10.9v36h-16.5
				V64.8H1174.8z M1206.2,108.4c8,0,13.2-5.9,13.2-14.6c0-8.7-5.2-14.7-13.2-14.7h-14.8v29.3H1206.2z"/>
			<path class="st2" d="M1259.4,64.8h53.2v14.3h-36.7V104h31.1l-0.8,13.7H1276v25.7h37.9v14.3h-54.4L1259.4,64.8L1259.4,64.8z"/>
			<path class="st2" d="M616.8,307.3c-8.9,2.9-17.2,4.3-26.7,4.3c-21.2,0-36.8-12.4-36.8-37.8v-20.9c0-25.4,15.7-37.8,36.8-37.8
				c9.4,0,17.6,1.5,26.7,4.3l-3.2,13.9c-7.3-2.2-14.8-3.9-23.4-3.9c-12.4,0-20.5,7-20.5,24.7v18.4c0,18,8.1,24.8,20.5,24.8
				c8.5,0,16.1-1.5,23.4-3.9L616.8,307.3z"/>
			<path class="st2" d="M662.1,216.8h19.1l28.7,92.9h-16.8l-7-23.8h-29l-6.9,23.8h-16.9L662.1,216.8z M682.3,272.3l-6.9-23.1
				c-1.2-4.1-2.6-9.9-3.7-15.4c-1.2,5.5-2.6,11.3-3.9,15.4l-6.9,23.1H682.3z"/>
			<path class="st2" d="M730.8,216.8h13.3l36.2,60.4c-0.3-5.1-0.4-9.9-0.4-13.8v-46.6h16.6v92.9h-13.7l-36-59.8
				c0.4,5.2,0.6,10.2,0.6,14.2v45.6h-16.6V216.8z"/>
			<path class="st2" d="M846.2,216.8h19.1l28.7,92.9h-16.8l-7-23.8h-29l-6.9,23.8h-16.9L846.2,216.8z M866.4,272.3l-6.9-23.1
				c-1.2-4.1-2.6-9.9-3.7-15.4c-1.2,5.5-2.6,11.3-3.9,15.4l-6.9,23.1H866.4z"/>
			<path class="st2" d="M914.9,309.7v-87c10.7-4,22.8-7.7,34-7.7c18.4,0,34.1,12.2,34.1,34.6v26.3c0,22.4-12.8,33.8-34.1,33.8
				L914.9,309.7L914.9,309.7z M966.4,251c0-14.7-7.1-21.7-17.5-21.7c-5.9,0-12.2,1.4-17.5,3.2v63h17.5c12,0,17.5-5.5,17.5-20.6V251z
				"/>
			<path class="st2" d="M1028.2,216.8h19.1l28.7,92.9h-16.8l-7-23.8h-29l-6.9,23.8h-16.9L1028.2,216.8z M1048.3,272.3l-6.9-23.1
				c-1.2-4.1-2.6-9.9-3.7-15.4c-1.2,5.5-2.6,11.3-3.9,15.4l-6.9,23.1H1048.3z"/>
		</g>
	</g>
</g>
</svg>
